<svg xmlns="http://www.w3.org/2000/svg" viewBox="0 0 220.68 146.8"><defs><style>.cls-1{fill:#fcfcfc;}.cls-2{fill:#efefef;}.cls-3{fill:#070707;opacity:0.2;}.cls-4{fill:#e5e6e6;}.cls-5,.cls-6{font-size:40.38px;font-family:Boogaloo-Regular, Boogaloo Regular;}.cls-5{fill:#f3b843;}.cls-6{fill:none;stroke:#231f20;stroke-miterlimit:10;stroke-width:0.1px;}</style></defs><title>aAsset 2</title><g id="Layer_2" data-name="Layer 2"><g id="Objects"><polygon class="cls-1" points="220.68 126.31 14.56 146.8 0 0 210.98 20.47 220.68 126.31"/><polygon class="cls-2" points="122.33 24.07 14.56 146.8 220.68 126.31 122.33 24.07"/><polygon class="cls-3" points="208.79 20.26 0 0 130.24 99.61 208.79 20.26"/><polygon class="cls-4" points="208.79 20.26 0 0 128.36 87.68 208.79 20.26"/><polygon class="cls-3" points="88.87 67.97 14.56 146.8 85.81 65.63 88.87 67.97"/><polygon class="cls-3" points="160.88 68.54 220.68 126.31 162.93 66.51 160.88 68.54"/><text></text><text class="cls-5" transform="matrix(2.34, 0.06, -0.03, 1, 104.4, 65.63)">#</text><text class="cls-5" transform="matrix(2.34, 0.06, -0.03, 1, 104.4, 65.63)">#</text><text class="cls-6" transform="matrix(2.34, 0.06, -0.03, 1, 104.4, 65.63)">#</text></g></g></svg>