<svg xmlns="http://www.w3.org/2000/svg" viewBox="0 0 940.8 419.63"><defs><style>.cls-1{fill:#d1a881;}.cls-2{fill:#d9b899;}.cls-3{fill:#141414;}.cls-4{fill:#6f6f6f;}.cls-5{fill:#4a4a4a;}.cls-6{fill:#ebeae9;}.cls-7{fill:#dcdcdc;}.cls-8{fill:gray;}.cls-9{fill:#9f9f9f;}.cls-10{fill:#333;}.cls-11{fill:#696058;}.cls-12{fill:#4f4944;}.cls-13{fill:#fff;}.cls-14{fill:#544d46;}.cls-15{fill:#413c36;}.cls-16{fill:#575757;}.cls-17{fill:#828283;}.cls-18{fill:#7f7f7f;}.cls-19{fill:#a0a2a4;}.cls-20{fill:#961a27;}.cls-21{fill:#6b0a0a;}.cls-22{fill:#d7d7d7;}.cls-23{fill:#e5e5e5;}.cls-24{fill:#d0d0d0;}.cls-25{fill:#efefef;}.cls-26{fill:#c1c1c1;}.cls-27{fill:#555;}.cls-28{fill:#6d6d6d;}.cls-29{fill:#d8b797;}.cls-30{fill:#44311e;}.cls-31{fill:#5a4027;}.cls-32{fill:#2b1f15;}.cls-33{fill:#493422;}.cls-34{fill:#dad8d8;}.cls-35{fill:#eae9eb;}.cls-36{fill:#323232;}.cls-37{fill:#e7b86e;}.cls-38{fill:#e2a74a;}.cls-39{fill:#444343;}.cls-40{fill:#5c6e80;}.cls-41{fill:#7b8a98;}.cls-42{fill:#737272;}.cls-43{fill:#ededee;}.cls-44{fill:#cccdcf;}.cls-45{fill:#5c1212;}.cls-46{fill:#81202b;}.cls-47{fill:#eaeaec;}.cls-48{fill:#dbd9d9;}.cls-49{fill:#bacfe5;}.cls-50{fill:#cee2f3;}.cls-51{fill:#5a5046;}.cls-52{fill:#38322c;}.cls-53{fill:#e2e2e3;}.cls-54{fill:#401313;}.cls-55{fill:#eaeaea;}.cls-56{fill:#a7a7a7;}.cls-57{fill:#4d4c4c;}.cls-58{fill:#2c2b2b;}</style></defs><title>Asset 2</title><g id="Layer_2" data-name="Layer 2"><g id="Layer_1-2" data-name="Layer 1"><g id="Layer_2-2" data-name="Layer 2"><g id="Layer_1-2-2" data-name="Layer 1-2"><g id="Icons"><path class="cls-1" d="M36.9,387.8a6,6,0,0,0,1.6,2.2c1.7,1.2,4.1,1.3,6,1.3,1,0,2.1,0,3.1-.1a19.38,19.38,0,0,0,2.4-.4,12.7,12.7,0,0,0,1.7-.6,3.78,3.78,0,0,1,1-.2c-.2-.5-.3-1.1-.5-1.6V379H33.5v1.7a3.72,3.72,0,0,1,3,.6,3.55,3.55,0,0,1,1.5,2.4,4.56,4.56,0,0,1-1.1,3.6Z"/><path class="cls-2" d="M90.4,381.4a3.73,3.73,0,0,1,2.8-.7v-2.8H74.5v10.5A9.89,9.89,0,0,0,74,390a4.43,4.43,0,0,1,1.2.2c.6.2,1.1.4,1.7.6a19.38,19.38,0,0,0,2.4.4,16.08,16.08,0,0,0,3.1.1c2.2,0,5.1-.2,6.7-2,.2-.3,1.1-1.5.8-1.9a5,5,0,0,1-1.1-3.6A3.84,3.84,0,0,1,90.4,381.4Z"/><polygon class="cls-3" points="72.7 400.6 72.7 403.7 118.6 403.7 118.6 400.6 118.6 400.6 118.6 401.1 73.1 401.1 73.1 400.6 72.7 400.6"/><path class="cls-4" d="M82.4,391.3c-1,0-2.1,0-3.1-.1a19.38,19.38,0,0,1-2.4-.4,12.7,12.7,0,0,1-1.7-.6A4.43,4.43,0,0,0,74,390c-.5,0-.9.2-.9.8v10.3h45.5v-5c0-2.5-1.6-6.3-8.6-8.3,0,0-10-3.1-12.5-4.9-1.3-.9-2.8-2-4.3-2.2a3.34,3.34,0,0,0-2.8.7,3.74,3.74,0,0,0-1.5,2.5,5,5,0,0,0,1.1,3.6c.3.4-.6,1.6-.8,1.9C87.5,391.1,84.6,391.3,82.4,391.3Zm7.8-3.6c2.6,1.1,9.5,5.3,9.5,5.3l-12.9-2.2C89.3,390.4,90.2,387.7,90.2,387.7Z"/><polygon class="cls-3" points="8.1 400.6 8.1 403.7 54.1 403.7 54.1 400.6 53.9 400.6 53.9 401.1 8.3 401.1 8.3 400.6 8.1 400.6"/><path class="cls-5" d="M37,387.5a5,5,0,0,0,1.1-3.6,3.35,3.35,0,0,0-1.5-2.4,3.72,3.72,0,0,0-3-.6,10.88,10.88,0,0,0-4.1,2.2C27,384.9,17,388,17,388c-6.9,2.1-8.6,5.9-8.5,8.3v5H54V391c0-.7-.5-.9-1.1-.8a2.66,2.66,0,0,0-1,.2c-.6.2-1.1.4-1.7.6a19.38,19.38,0,0,1-2.4.4,16.08,16.08,0,0,1-3.1.1,11.47,11.47,0,0,1-6-1.3,3.77,3.77,0,0,0,1.8.8l-12.9,2.2a105,105,0,0,1,9.5-5.3h0C36.9,387.6,36.9,387.5,37,387.5Z"/><path class="cls-6" d="M63.4,266.5h5.8L72,377.9H95l3-120.8a19.91,19.91,0,0,0,2.9-10.3V234.3h-.1l.1,8L63.4,242Z"/><polygon class="cls-7" points="26 234.3 25.9 234.3 25.9 241 26 234.3"/><path class="cls-7" d="M25.9,246.8a19.93,19.93,0,0,0,2.9,10.3l3,121.9h23l2.7-112.5h5.8V242H25.8v4.8Z"/><path class="cls-1" d="M16.5,246.7H1.6A7.92,7.92,0,0,0,0,251.5v6.8a7.8,7.8,0,0,0,15.6,0h0v-4.9l1,2.7a2.34,2.34,0,1,0,4.4-1.6h0L19.7,251c0-.1-.1-.2-.1-.3h0A18.8,18.8,0,0,0,16.5,246.7Z"/><path class="cls-2" d="M116.8,266.3a7.92,7.92,0,0,0,7.8-8v-6.8a7.92,7.92,0,0,0-1.6-4.8H108.1a13.84,13.84,0,0,0-3.1,4.1h0a.37.37,0,0,0-.1.3l-1.3,3.5a2.34,2.34,0,1,0,4.4,1.6h0l1-2.7v4.9a7.77,7.77,0,0,0,7.64,7.9Z"/><path class="cls-1" d="M107.3,87.8c2.5-.7,6.3-2.9,8.6-10,3-9.5-3.2-12-5.3-12.6A108.54,108.54,0,0,1,107.3,87.8Z"/><path class="cls-2" d="M87,97.7c-11.3,0-16-9.9-17.7-15.3h-6v43a50.18,50.18,0,0,0,8.9-.8c20.3-3.6,30.5-19.5,35.1-36.8a115,115,0,0,0,3.4-22.6v-.4c-.9-1.8-7.1-14-5.8-21.9,1.4-8.6-25.4-6.7-41.5-1.2v-.1l-.1.1h-.1V77.9h5.4a5.77,5.77,0,0,1,5.7-3.8H99.8c3.3,0,5.9,2.3,5.9,5C105.7,79.1,102.5,97.7,87,97.7Z"/><path class="cls-8" d="M25.9,241v.9H63.4V161h0v-9.9c-.1,0-22.2-4.3-22.3-14.8a51.35,51.35,0,0,0-8.4,3.2c-4.3,2-8.5,4.5-11.6,8h0S4.9,159.9,1.6,246.8H17.4s1-40.2,9.3-66.5l-.6,54.1Z"/><path class="cls-9" d="M108.1,246.7h15.6c-2-52.9-8.8-78.2-13.8-89.9-1.6-4.7-6.4-13.9-20.9-19.3-1.1-.5-2.2-.9-3.2-1.3,0,10.6-22.3,14.9-22.3,14.9h-.1V161h0v81h0l37.5.3-.1-8-.8-52.5c6.9,25.4,7.8,64.9,7.8,64.9Z"/><path d="M53.4,74H27.9c-3.3,0-5.9,2.3-5.9,5,0,0,3.2,18.6,18.7,18.6,11.3,0,16-9.9,17.7-15.3H64V77.7H59.1A5.91,5.91,0,0,0,53.4,74Z"/><path class="cls-10" d="M74.3,74a5.86,5.86,0,0,0-5.7,3.8H63.9v4.6h5.3c1.7,5.3,6.4,15.3,17.7,15.3,15.5,0,18.7-18.6,18.7-18.6,0-2.8-2.6-5-5.9-5H74.3Z"/><path class="cls-2" d="M85.8,136.2h0s-3.6-2.2-13.6-2.9c-2.3-.2-4.9-.2-7.9-.2h-.8V151h0C63.4,151.1,85.8,146.9,85.8,136.2Z"/><path class="cls-1" d="M72.1,133.3v-8.7a50.18,50.18,0,0,1-8.9.8h0v-43H58.3c-1.7,5.3-6.4,15.3-17.7,15.3-15.5,0-18.7-18.6-18.7-18.6,0-2.8,2.6-5,5.9-5H53.3A5.86,5.86,0,0,1,59,77.9h4.2V41.7c-16-5.4-42.8-7.3-41.3,1.2S16,65.1,16,65.1a4.34,4.34,0,0,1-.2-.5,3.74,3.74,0,0,0,.1,1c-2.5,1-7.1,3.9-4.4,12.3,2.2,6.9,5.8,9.2,8.3,9.9,5.2,17.3,15.8,33.3,35,36.9v8.8c-10.1.7-13.7,2.9-13.7,2.9v.1c.2,10.5,22.3,14.8,22.3,14.8h.1V133.4h.8A52.07,52.07,0,0,1,72.1,133.3Z"/><path d="M63.2,41.6h.1l.1-.1V0L59.2,6.6,49.2,0,43,11.5,30.4,1.9c-1.9,3-4.7,16.6-4.7,16.6-3.8-1.9-13.3-3.3-13.3-3.3l1.9,21.1L7.6,34.2C8,43.3,14.5,61,15.8,64.3a4.34,4.34,0,0,0,.2.5s7.4-13.6,5.9-22.2C20.5,34.3,47.2,36.2,63.2,41.6Z"/><path class="cls-10" d="M110.7,64.8a.3.3,0,0,1,.1.2s7.9-20.7,8.4-30.7l-6.7,2.1,1.9-21.1s-9.5,1.4-13.3,3.3c0,0-2.8-13.7-4.8-16.6L83.7,11.6,77.5.1l-10,6.6L63.4.1V41.7c16-5.5,42.9-7.4,41.5,1.2C103.6,50.7,109.7,63,110.7,64.8Z"/><path class="cls-7" d="M27.5,393l12.9-2.2a5,5,0,0,1-1.8-.8,6,6,0,0,1-1.6-2.2h0C34.3,388.8,27.5,393,27.5,393Z"/><path class="cls-7" d="M86.8,390.8,99.7,393a105,105,0,0,0-9.5-5.3S89.3,390.4,86.8,390.8Z"/><path class="cls-1" d="M416.2,261.43H405.1v1.8a7.92,7.92,0,0,0-1.9,5.2v6.8a7.92,7.92,0,0,0,7.8,8,7.84,7.84,0,0,0,7.8-7.86v-4.94l1,2.7a2.34,2.34,0,1,0,4.4-1.6h0l-1.3-3.5c0-.1-.1-.2-.1-.3a14.11,14.11,0,0,0-5.9-6v-.3Z"/><path class="cls-2" d="M517.6,283.53a7.92,7.92,0,0,0,7.8-8v-6.8a7.92,7.92,0,0,0-1.9-5.2v-2H511.8v.5a13.61,13.61,0,0,0-5.9,5.9h0c0,.1-.1.2-.1.3l-1.3,3.5a2.34,2.34,0,1,0,4.4,1.6l1-2.7v4.9a7.76,7.76,0,0,0,7.54,8Z"/><path class="cls-2" d="M473.7,389.23v14.3a2,2,0,0,0,.3,1c1.8,3.7,12.5,4,18.4,3.9l4-.2c0-3.7,2.1-4.8,3.4-5.1l-7.4-1.6v-12.3Z"/><path class="cls-11" d="M497,411.63a9.15,9.15,0,0,1-2.4-1.3c-.49-.38-1-.78-1.4-1.2-.1-.1-.6-.8-.7-.8-6,.2-16.7-.1-18.4-3.9-.1-.3-.2-.6-.3-1a21.87,21.87,0,0,0-2,7.7c0,2.2,0,4.2.9,5.7a360.15,360.15,0,0,0,41.3,0,7,7,0,0,0,1.7-4.6c0-2.4-1.6-6-8.3-8l-6.5-1.4a6.64,6.64,0,0,0-1,.1c-1.3.3-3.4,1.4-3.4,5.1a3.36,3.36,0,0,1,.3.6,5.63,5.63,0,0,0,1.5,1.5c.3.2.9.6.7,1.1C498.7,412.13,497.6,411.83,497,411.63Z"/><path class="cls-12" d="M472.7,416.93c.1.2.3.4.4.6h0l.5.5h0c.2.1.4.3.6.4a.09.09,0,0,1,.1.1,4.76,4.76,0,0,0,.7.3c.1,0,.1,0,.2.1a1.94,1.94,0,0,0,.7.2.3.3,0,0,1,.2.1c.3.1.5.1.8.2a.34.34,0,0,1,.3.1c.3,0,.6.1,1,.1h30.3c.2,0,.4-.1.7-.1a.41.41,0,0,0,.3-.1c.2,0,.4-.1.7-.1.1,0,.1,0,.2-.1s.47-.12.7-.2h.1c.3-.1.6-.3.9-.4.1-.1.2-.1.4-.2a1.38,1.38,0,0,0,.4-.3c.1-.1.3-.2.4-.3l.3-.3c.1-.1.3-.2.4-.4l.1-.1h0Q493.42,418,472.7,416.93Z"/><path class="cls-13" d="M496.8,408.73l-.3-.6-4,.2c.1,0,.6.7.7.8a5.37,5.37,0,0,0,1.4,1.2,14.64,14.64,0,0,0,2.4,1.3c.6.2,1.7.5,2-.4.2-.5-.4-.8-.7-1.1A4,4,0,0,1,496.8,408.73Z"/><path class="cls-1" d="M429.6,403.33c1.3.3,3.4,1.4,3.4,5.1l4,.2c6,.1,16.7-.1,18.4-3.9.1-.3.2-.6.3-1v-13.6H437v11.6Z"/><path class="cls-14" d="M431.2,410.53a5.36,5.36,0,0,0,1.5-1.5l.3-.6c0-3.7-2.1-4.8-3.4-5.1a6.64,6.64,0,0,0-1-.1l-6.5,1.4c-6.7,2-8.3,5.7-8.3,8a6.57,6.57,0,0,0,1.7,4.6,360.15,360.15,0,0,0,41.3,0c.9-1.5.9-3.5.9-5.7a21.87,21.87,0,0,0-2-7.7,2,2,0,0,1-.3,1c-1.8,3.7-12.5,4-18.4,3.9-.1,0-.6.7-.7.8a5.37,5.37,0,0,1-1.4,1.2,19.84,19.84,0,0,1-2.4,1.3c-.6.2-1.7.5-2-.4C430.4,411,430.9,410.73,431.2,410.53Z"/><path class="cls-15" d="M415.6,417.13h0c.2.2.3.4.5.5l.3.3c.1.1.3.2.4.3a2.19,2.19,0,0,0,.5.3l.4.2a3.64,3.64,0,0,0,.9.4h.1a1.94,1.94,0,0,0,.7.2c.1,0,.1,0,.2.1a1.51,1.51,0,0,0,.7.1h.3c.2,0,.4.1.7.1h28.4a8.41,8.41,0,0,0,1.5-.1h.3c.3,0,.7-.1,1-.1a.41.41,0,0,0,.3-.1c.3-.1.6-.1.8-.2s.2,0,.2-.1c.24-.06.47-.12.7-.2s.1,0,.2-.1a4.88,4.88,0,0,1,.7-.3.1.1,0,0,0,.1-.1c.2-.1.4-.3.6-.4h.1c.2-.2.4-.3.5-.5h0a2.17,2.17,0,0,0,.4-.6h0C433.4,418.53,416,417.23,415.6,417.13Z"/><path class="cls-13" d="M431.2,410.53c-.3.2-.9.6-.7,1,.3.9,1.4.6,2,.4a11.36,11.36,0,0,0,2.4-1.3,18,18,0,0,0,1.4-1.2c.1-.1.6-.8.7-.8l-4-.2a3.36,3.36,0,0,0-.3.6A5.36,5.36,0,0,1,431.2,410.53Z"/><path class="cls-16" d="M433.1,278.43l3.5,111.8H458l3.7-103.3h2.4v-30.2H431.2v10.4A28.52,28.52,0,0,0,433.1,278.43Z"/><path class="cls-17" d="M464.1,254.63v2h0v30.2h4l3.6,102.3h21.4l3.4-109.6a21,21,0,0,0,4-12.5v-10.1h-3.3l-30.1-.3h-2.9l-.1-2Z"/><path class="cls-18" d="M451.3,149.23h0a4.86,4.86,0,0,0-1.2.2s-.2.3-.6.8A14.43,14.43,0,0,1,451.3,149.23Z"/><path class="cls-18" d="M431.1,256.73H464v-65.2c-.3-.1-16-5-22.5-14.1l1.9-6.9s.1-7.6-3.6-2.1c0,0-3.8-9.9,10.2-18.9-.9.2-1.9.4-3,.7a59,59,0,0,0-11.9,4.1c-4.3,2-8.5,4.5-11.6,8h0s-16.2,12.4-19.5,99.3h15.8s1-40.2,9.3-66.5c0,0,4.2,21.6,4.1,28.3-.1,8.7-4.8,33.5-4.8,33.5h2.7Z"/><path class="cls-19" d="M510.4,261.43h15.8c-2-52.9-8.8-78.2-13.8-89.9-1.6-4.7-6.4-13.9-20.9-19.3a36.64,36.64,0,0,0-12.8-3.5h-1.6c0,.1.1.1.1.2h0c.2,0,.4.1.7.1a6.59,6.59,0,0,1,3.4,2.4c10.2,7.5,8,16.9,8,16.9-3.7-5.5-3.6,2.1-3.6,2.1l1.9,6.9c-6.6,9.2-22.5,14.1-22.5,14.1a64.72,64.72,0,0,0,5.4-4.8,58.68,58.68,0,0,1-6.4,4.8h0v65.2H467l30.1.3h6.4s-5.2-26.1-5.4-35c-.1-6.2,4.5-25.5,4.5-25.5C509.5,222,510.4,261.43,510.4,261.43ZM469,244.23a2.7,2.7,0,1,1,2.7-2.7,2.7,2.7,0,0,1-2.7,2.7Zm0-12.7a2.7,2.7,0,1,1,2.7-2.7,2.7,2.7,0,0,1-2.7,2.7Zm0-11.2a2.7,2.7,0,1,1,2.7-2.7,2.75,2.75,0,0,1-2.7,2.7Zm0-12.5a2.7,2.7,0,1,1,2.7-2.7,2.7,2.7,0,0,1-2.7,2.7Z"/><path d="M506.3,104.53c-4.4,16.7-14.1,32-33.9,35.3v5.1h39.1s42.1-115.4-47.2-113.7c-79.8,1.5-45.8,59.9-62.4,113.7h53.8v-5.1c-19.4-3.4-29.2-18.7-33.8-35.4-2.4-.8-5.7-3-7.8-9.5-2.7-8.4,2.2-11.1,4.5-11.9-.1-2-.2-3.9-.2-5.8,1.4-3.3,4.3-9.2,10.3-19.1,12.8-21.6,33-2.3,35.1-.2v.2l.1-.1.1.1v-.2c1.9-2.3,18.3-20.7,35.1,5.8,4.5,7.1,7.9,12,10.4,15.2,0,1.3-.1,2.7-.1,4.1,2,.6,7.9,3,5,12C512.3,101.63,508.7,103.83,506.3,104.53ZM460,31.73c1.3-.1,2.6-.2,3.9-.2-1.4.1-2.7.2-3.9.2Zm4.1-.1h0c1.5,0,3,.1,4.5.2-1.5-.1-3-.2-4.5-.2Z"/><path class="cls-1" d="M461.2,156.43a3.12,3.12,0,0,1,2.8,1.8v-9.5h7.5a3.71,3.71,0,0,1,.8-1v-8a54.9,54.9,0,0,1-8.3.7v-15.5h-6.7c-5,0-9.1-1.9-9.6-4.4h0a.45.45,0,1,1,0-.9h0c.4-2.5,4.6-4.4,9.6-4.4h6.8V58.13L464,58a.1.1,0,0,1-.1.1v-.2c-2.1-2.1-22.2-21.4-35.1.2a208.93,208.93,0,0,0-10.3,19.1c0,1.9.1,3.8.2,5.8-2.3.8-7.2,3.5-4.5,11.9,2.1,6.5,5.4,8.7,7.8,9.5,4.5,16.7,14.3,32,33.8,35.4v7.7a3.25,3.25,0,0,1,1.7,2.7,3.11,3.11,0,1,1-6-.9,5.29,5.29,0,0,0-1.8,1.1c-1.8,2.7-6.4,11.9-.1,24.2h14.8v-13.7a3.08,3.08,0,0,1-2.8,1.8,3.12,3.12,0,0,1-3.1-3.1,2.63,2.63,0,0,1,2-3.14A2.84,2.84,0,0,1,461.2,156.43Zm-5.5,3.2a3.1,3.1,0,1,1,3.1-3.1h0A3.12,3.12,0,0,1,455.7,159.63Z"/><path class="cls-2" d="M479.5,120.63h0c-.5,2.5-4.6,4.4-9.6,4.4H464v15.5a53.63,53.63,0,0,0,8.3-.7c19.8-3.3,29.5-18.6,33.9-35.3,2.4-.7,6-2.8,8.2-9.6,2.9-9-3-11.5-5-12,.1-1.4.1-2.7.1-4.1-2.5-3.2-5.9-8.1-10.4-15.2-16.8-26.5-33.2-8-35.1-5.8v57.4h5.9c5,0,9.1,1.9,9.6,4.4h0C480.1,119.73,480.1,120.63,479.5,120.63Z"/><path class="cls-2" d="M468.6,31.83a32.21,32.21,0,0,0-4.5-.2h0C465.6,31.63,467.1,31.73,468.6,31.83Z"/><path class="cls-1" d="M460,31.73c1.3-.1,2.6-.1,3.9-.2C462.6,31.63,461.3,31.63,460,31.73Z"/><path class="cls-20" d="M464.1,115.23h-6.8c-5,0-9.1,1.9-9.6,4.4h31.8c-.4-2.5-4.6-4.4-9.6-4.4Z"/><path class="cls-20" d="M447.7,120.63c.4,2.5,4.6,4.4,9.6,4.4H470c5,0,9.1-1.9,9.6-4.4C468.9,120.93,458.3,120.73,447.7,120.63Z"/><path class="cls-21" d="M479.5,119.73H447.7a.45.45,0,0,0-.45.45.45.45,0,0,0,.45.45h0c10.6.1,21.2.3,31.8,0h0a.45.45,0,0,0,0-.9Z"/><path class="cls-1" d="M441.5,151.33a29.09,29.09,0,0,1,3.8-1A22.87,22.87,0,0,0,441.5,151.33Z"/><path class="cls-18" d="M451.4,148.93a51.29,51.29,0,0,0-6,1.3c1.9-.5,3.9-.8,6-1.2C451.3,149,451.3,149,451.4,148.93Z"/><path class="cls-22" d="M464.1,191.43v-16.9H449.3C451.9,179.73,456.5,185.43,464.1,191.43Z"/><path class="cls-13" d="M464.1,175.83v15.7a46.06,46.06,0,0,0,6.4-4.8c4.3-4.3,7.2-8.3,8.9-12.2H464v1.3Z"/><path class="cls-2" d="M477.2,149a31.17,31.17,0,0,1,4.1,2.5,7.21,7.21,0,0,0-3.4-2.4C477.7,149.13,477.4,149,477.2,149Z"/><path class="cls-2" d="M464.1,174.53h15.4c6.1-13-.3-22.8-2.1-25.2a2.71,2.71,0,0,1,.1.9,3.1,3.1,0,0,1-6.2,0h0a2.32,2.32,0,0,1,.4-1.4h-7.5v9.5a2.79,2.79,0,0,1,.3,1.3,3.1,3.1,0,1,1,3.1,3.1h0a3.12,3.12,0,0,1-3.1-3.1,2.79,2.79,0,0,1-.3,1.3v13.6Zm5.6-18.1a3.1,3.1,0,1,1,3.1,3.1h0a3,3,0,0,1-3.1-2.9v-.2Z"/><path class="cls-23" d="M467.5,156.43a3.1,3.1,0,1,0,3.1,3.1h0A3.12,3.12,0,0,0,467.5,156.43Z"/><path class="cls-24" d="M461.2,156.43a3.1,3.1,0,1,0,2.8,4.4,3,3,0,0,0,0-2.6A3,3,0,0,0,461.2,156.43Z"/><path class="cls-25" d="M469.7,156.43a3.1,3.1,0,1,0,3.1-3.1h0A3.12,3.12,0,0,0,469.7,156.43Z"/><path class="cls-25" d="M477.1,148.83a3.14,3.14,0,0,0-2.8-1.7,3.46,3.46,0,0,0-2,.7,3.71,3.71,0,0,0-.8,1,3.28,3.28,0,0,0-.4,1.4,3.1,3.1,0,0,0,6.2,0c0-.3-.1-.6-.1-.9a5.68,5.68,0,0,0-.5-.6c.1.1.2.1.3.2S477.1,148.83,477.1,148.83Z"/><path class="cls-24" d="M452.6,156.43a3.1,3.1,0,1,0,3.1-3.1h0A3.12,3.12,0,0,0,452.6,156.43Z"/><path class="cls-26" d="M455.7,147.53a2.81,2.81,0,0,0-1.5-.4,3.19,3.19,0,0,0-2.9,1.9v.3h0a3.07,3.07,0,1,0,6,.9h0a2.32,2.32,0,0,0-.4-1.4A2.14,2.14,0,0,0,455.7,147.53Z"/><path class="cls-27" d="M441.5,177.33c6.6,9.1,22.3,14,22.5,14.1h0c-7.6-6-12.1-11.8-14.8-16.9-6.3-12.3-1.6-21.5.1-24.2a6,6,0,0,1,.6-.8c-14,9-10.2,18.9-10.2,18.9,3.7-5.5,3.6,2.1,3.6,2.1Z"/><path class="cls-28" d="M489.3,168.43s2.1-9.4-8-16.9a25.67,25.67,0,0,0-4.1-2.5h0c-.1-.1-.2-.1-.3-.2a5.68,5.68,0,0,1,.5.6c1.8,2.4,8.2,12.1,2.1,25.2a44,44,0,0,1-8.9,12.2,64.72,64.72,0,0,1-5.4,4.8s15.9-4.9,22.5-14.1l-1.9-6.9C485.8,170.43,485.7,162.93,489.3,168.43Z"/><path class="cls-28" d="M466.3,205.13a2.7,2.7,0,1,0,2.7-2.7,2.7,2.7,0,0,0-2.7,2.7Z"/><path class="cls-28" d="M466.3,217.53a2.7,2.7,0,1,0,2.7-2.7,2.7,2.7,0,0,0-2.7,2.7Z"/><path class="cls-28" d="M466.3,228.83a2.7,2.7,0,1,0,2.7-2.7,2.7,2.7,0,0,0-2.7,2.7Z"/><path class="cls-28" d="M466.3,241.53a2.7,2.7,0,1,0,2.7-2.7,2.63,2.63,0,0,0-2.7,2.56Z"/><rect class="cls-1" x="846.4" y="352.6" width="20" height="17.4"/><rect class="cls-29" x="886.5" y="352.6" width="20" height="17.4"/><path class="cls-1" d="M829.2,150.8h47.3V125h-12S829.2,129.6,829.2,150.8Z"/><polygon class="cls-30" points="867.9 359 872.7 224.4 842.4 224.4 846.6 359 867.9 359"/><path class="cls-31" d="M857.7,256.6h35.6A19.67,19.67,0,0,0,913,237V224.4H837.9v12.5A19.82,19.82,0,0,0,857.7,256.6Z"/><path class="cls-30" d="M857.7,256.6h17.8V224.4H838v12.5a19.67,19.67,0,0,0,19.64,19.7Z"/><rect class="cls-32" x="844.8" y="353.8" width="23.8" height="10.3"/><polygon class="cls-31" points="906.6 359 910.7 224.4 880.5 224.4 885.2 359 906.6 359"/><rect class="cls-33" x="883.9" y="353.8" width="23.8" height="10.3"/><path class="cls-1" d="M835.5,71.6c3.4,10.7,10.5,9.8,10.5,9.8l-4.9-21.8C841.1,59.5,832,60.9,835.5,71.6Z"/><path class="cls-1" d="M914.1,81.4s7,.9,10.5-9.8S919,59.5,919,59.5Z"/><path class="cls-1" d="M827.5,71.6c3.4,10.7,10.5,9.8,10.5,9.8l-4.9-21.8C833.1,59.5,824,60.9,827.5,71.6Z"/><rect class="cls-1" x="867.1" y="108.5" width="16.6" height="16.6"/><path class="cls-29" d="M830.1,54c0,24.9,14.7,62.9,45.2,62.9,30.3,0,45.1-37.9,45.1-62.9a45.15,45.15,0,0,0-90.3,0Z"/><path class="cls-1" d="M875.3,116.8V8.8a45.21,45.21,0,0,0-45.2,45.1C830.1,78.9,845.1,116.8,875.3,116.8Z"/><path class="cls-29" d="M875.7,125v25.8h46.6c0-21.2-34.8-25.8-34.8-25.8Z"/><g id="_Group_" data-name=" Group "><path d="M867.5,75.6a1.9,1.9,0,0,0,1.9,1.9h5.4V73.7h-5.4a1.84,1.84,0,0,0-1.9,1.78Z"/><path class="cls-10" d="M874.8,73.7v3.8h5.1a1.9,1.9,0,0,0,0-3.8Z"/><path d="M842.7,73.7A13.3,13.3,0,1,0,856,60.4h0a13.29,13.29,0,0,0-13.3,13.28Z"/><path class="cls-34" d="M846,74a10,10,0,1,0,10-10A10,10,0,0,0,846,74Z"/><path class="cls-10" d="M879.6,73.7a13.3,13.3,0,1,0,13.3-13.3h0A13.36,13.36,0,0,0,879.6,73.7Z"/><path class="cls-35" d="M882.9,74a10,10,0,1,0,10-10A10,10,0,0,0,882.9,74Z"/></g><path class="cls-36" d="M831,66.8c.3-.9,1.4-4.8,1.4-4.8l.3-3.7-3.1-1.4C829.3,60.3,830.8,67.7,831,66.8Z"/><path class="cls-37" d="M875.3,8.8V49.7s13-9.7,16.1-24.8c0,0,17.4,15.4,20.2,34.7l7.3,8.5s3.8-43.6-25.8-55.2C893.1,13,881.6,8.1,875.3,8.8Z"/><path class="cls-38" d="M825.9,49.4l-1.4,9.4s30.9,1.4,50.8-9.1V6.1S833.9,4.4,825.9,49.4Z"/><path d="M922.3,18A51.25,51.25,0,0,0,878.2,5.4c51.4,21.6,46.5,60.4,46.5,60.4s4.6,1.1,4-8.1c-.3-4.3,3.7-11.5,3.7-11.5S942.6,36.5,922.3,18Z"/><path class="cls-39" d="M869.2,5.9s-19.4,1.4-17,6.2c0,0,67.8,8.3,66.8,56.2l5.9-2.5c.4-2.9,4.1-36.4-18.3-49.9C881.8,1,869.2,5.9,869.2,5.9Z"/><path d="M850.7,12s21.7,4.5,24.5,6.2l-.2-13C875,5.1,853.5,4.6,850.7,12Z"/><g id="_Group_2" data-name=" Group 2"><g id="_Group_3" data-name=" Group 3"><path class="cls-29" d="M925.1,249.1v6.8a7.8,7.8,0,0,0,15.6,0V249.1a7.8,7.8,0,0,0-15.6,0Z"/><path class="cls-29" d="M920.9,248.6l-1.3,3.5a2.34,2.34,0,0,0,4.4,1.6h0l1.3-3.5a2.38,2.38,0,0,0-1.4-3A2.42,2.42,0,0,0,920.9,248.6Z"/><path class="cls-29" d="M925.3,250.1h7.2v-8.9c-8-.2-11.4,7.2-11.4,7.2Z"/></g></g><path class="cls-29" d="M938.3,243.4c0-78.1-18.9-102.2-18.9-102.2l-4,30.2c11.4,25.7,11.3,72,11.3,72Z"/><g id="_Group_4" data-name=" Group 4"><g id="_Group_5" data-name=" Group 5"><path class="cls-1" d="M810.8,249.1v6.8a7.8,7.8,0,0,0,15.6,0V249.1a7.8,7.8,0,0,0-15.6,0Z"/><path class="cls-1" d="M827.6,247.2a2.3,2.3,0,0,0-1.43,2.92l0,.08,1.3,3.5a2.34,2.34,0,1,0,4.4-1.6l-1.3-3.5A2.42,2.42,0,0,0,827.6,247.2Z"/><path class="cls-1" d="M819,250.1h7.2l4.2-1.8s-3.4-7.4-11.4-7.2Z"/></g></g><path class="cls-1" d="M832,141.2s-18.9,24.1-18.9,102.2h11.6s-.2-46.3,11.3-72Z"/><path class="cls-40" d="M875.8,232.3V135.7c-7.7,0-10.7-10.6-10.7-10.6-5.1,0-6.9.9-11,2.1a53.08,53.08,0,0,0-10.6,4.1,45,45,0,0,0-5.5,3.3,28.93,28.93,0,0,0-3.7,3.1,32.21,32.21,0,0,0-8.1,11.9s-15.5,34.6-15.6,89.5h15.8c1.3-48.4,12.3-68.6,12.3-68.6l-3.5,61.8Z"/><path class="cls-10" d="M863.8,125c0,12.1,12.1,11.7,12.1,11.7v-3.5c-7.4,0-8.5-8.5-8.5-8.5Z"/><path class="cls-41" d="M940.8,239.1c-.2-54.9-15.6-89.5-15.6-89.5a32.21,32.21,0,0,0-8.1-11.9,22.87,22.87,0,0,0-3.7-3.1,61.08,61.08,0,0,0-5.5-3.3,53.08,53.08,0,0,0-10.6-4.1c-4.2-1.2-5.9-2.1-11-2.1,0,0-3,10.6-10.7,10.6v96.6h40.6l-3.5-61.8s11,20.2,12.3,68.6Z"/><path class="cls-42" d="M875.6,133.3v3.5s12.1.4,12.1-11.7l-3.6-.2C884.1,124.8,883,133.3,875.6,133.3Z"/><path d="M843.1,391.8h-.4a1.26,1.26,0,0,1-1.2-.9,6.78,6.78,0,0,0-3.6-4.5.9.9,0,0,1-.6-.6l-2.4.5c1.1.8,4.1,3.8,5,12.2h27.7v-4.1a12.31,12.31,0,0,0-.4-3.2l-1-14V370H846.3v7.2a3.37,3.37,0,0,1-.1,1,10.34,10.34,0,0,1,4.5,5.8,1.21,1.21,0,0,1-.8,1.5h0c-.1,0-.2.1-.4.1a1.26,1.26,0,0,1-1.2-.9,7.36,7.36,0,0,0-3-4.2,10,10,0,0,1-1.3,1.6,10,10,0,0,1,3.8,5.4,1.16,1.16,0,0,1-.6,1.4.35.35,0,0,0-.2.1c-.1,0-.2.1-.4.1a1.31,1.31,0,0,1-1.2-.8v-.1a7.2,7.2,0,0,0-3.5-4.5c-.6.4-1.3.7-1.8,1a9.67,9.67,0,0,1,2.4,2.5,13.61,13.61,0,0,1,1.4,2.9,1.23,1.23,0,0,1-.61,1.63Z"/><path class="cls-43" d="M834.6,386.1l-4.1.9c-7.1,2.1-8.8,6-8.8,8.5v3.1h18.2c-.9-8.4-3.9-11.4-5-12.2A.72.72,0,0,0,834.6,386.1Z"/><polygon class="cls-44" points="867.8 398.5 840 398.5 821.8 398.5 821.8 399.9 867.8 399.9 867.8 398.5"/><rect class="cls-44" x="821.8" y="401.5" width="45.9" height="1.6"/><polygon class="cls-45" points="821.8 401.5 867.8 401.5 867.8 400.6 867.8 399.9 821.8 399.9 821.8 400.6 821.8 401.5"/><path class="cls-44" d="M840.2,384.8a3.09,3.09,0,0,0-1.2-.7,1.17,1.17,0,0,0-1.55.58.61.61,0,0,0-.05.12,1.38,1.38,0,0,0,.7,1.6,7.1,7.1,0,0,1,3.6,4.5,1.39,1.39,0,0,0,1.2.9h.4a1.22,1.22,0,0,0,.82-1.53.14.14,0,0,0,0-.07,11.1,11.1,0,0,0-1.4-2.9A11.4,11.4,0,0,0,840.2,384.8Z"/><path class="cls-44" d="M844,382.2a3.09,3.09,0,0,0-1.2-.7,1.23,1.23,0,1,0-.9,2.3h0a7.2,7.2,0,0,1,3.5,4.5v.1a1.31,1.31,0,0,0,1.2.8.79.79,0,0,0,.4-.1.35.35,0,0,0,.2-.1,1.2,1.2,0,0,0,.6-1.4A9.58,9.58,0,0,0,844,382.2Z"/><path class="cls-44" d="M846.3,378.2c-.3-.2-.5-.2-.5-.3a1.17,1.17,0,0,0-1.55.58.61.61,0,0,0,0,.12,1.15,1.15,0,0,0,.54,1.54l.16.06a3.36,3.36,0,0,1,.6.3,7.87,7.87,0,0,1,3,4.2,1.39,1.39,0,0,0,1.2.9.79.79,0,0,0,.4-.1,1.17,1.17,0,0,0,.83-1.42l0-.08A10.8,10.8,0,0,0,846.3,378.2Z"/><path d="M906.5,370.2H886.6v7.2l-1,14a20.14,20.14,0,0,0-.4,3.2v4.1h27.7c.9-8.4,3.9-11.4,5-12.2l-2.4-.5a1.17,1.17,0,0,1-.6.6,7.1,7.1,0,0,0-3.6,4.5,1.39,1.39,0,0,1-1.2.9.79.79,0,0,1-.4-.1,1.15,1.15,0,0,1-.82-1.42.24.24,0,0,1,0-.08,7.89,7.89,0,0,1,1.4-2.9,9.67,9.67,0,0,1,2.4-2.5,15.83,15.83,0,0,1-1.8-1,7.2,7.2,0,0,0-3.5,4.5v.1a1.17,1.17,0,0,1-1.1.8.79.79,0,0,1-.4-.1.35.35,0,0,1-.2-.1,1.2,1.2,0,0,1-.6-1.4,10,10,0,0,1,3.8-5.4,10,10,0,0,1-1.3-1.6,7.87,7.87,0,0,0-3,4.2,1.29,1.29,0,0,1-1.2.9.79.79,0,0,1-.4-.1,1.15,1.15,0,0,1-.82-1.42.24.24,0,0,1,0-.08,9.59,9.59,0,0,1,4.5-5.8,3.07,3.07,0,0,1-.1-1v-7.2h-.1Z"/><path class="cls-43" d="M918.4,386.3a1.68,1.68,0,0,0-.4.3c-1.1.8-4.1,3.8-5,12.2h18.2v-3.1c0-2.5-1.7-6.4-8.8-8.5Z"/><polygon class="cls-44" points="885.2 400.1 931.2 400.1 931.2 398.7 913 398.7 885.2 398.7 885.2 400.1"/><polygon class="cls-46" points="885.2 401.7 931.2 401.7 931.2 400.8 931.2 400.1 885.2 400.1 885.2 400.8 885.2 401.7"/><path class="cls-44" d="M914,384.3a6.27,6.27,0,0,0-1.2.7,9.67,9.67,0,0,0-2.4,2.5,13.61,13.61,0,0,0-1.4,2.9,1.24,1.24,0,0,0,.8,1.5c.1,0,.2.1.4.1a1.26,1.26,0,0,0,1.2-.9,6.78,6.78,0,0,1,3.6-4.5.9.9,0,0,0,.6-.6,1.17,1.17,0,0,0,.1-1A1.44,1.44,0,0,0,914,384.3Z"/><path class="cls-44" d="M910.2,381.7a4,4,0,0,0-1.2.7,10,10,0,0,0-3.8,5.4,1.16,1.16,0,0,0,.6,1.4.35.35,0,0,1,.2.1c.1,0,.2.1.4.1a1.08,1.08,0,0,0,1.1-.8v-.1A7.2,7.2,0,0,1,911,384h.1a1.35,1.35,0,0,0,.7-1.6,1.18,1.18,0,0,0-1.48-.75Z"/><path class="cls-44" d="M907.3,378.1a5.09,5.09,0,0,0-.5.3,10.34,10.34,0,0,0-4.5,5.8,1.21,1.21,0,0,0,.8,1.5h0c.1,0,.2.1.4.1a1.26,1.26,0,0,0,1.2-.9,7.87,7.87,0,0,1,3-4.2,1.54,1.54,0,0,1,.6-.3,1.35,1.35,0,0,0,.7-1.6A1.53,1.53,0,0,0,907.3,378.1Z"/><rect class="cls-44" x="885.2" y="402.1" width="45.9" height="1.6"/><path class="cls-1" d="M227.09,242.36a11.52,11.52,0,0,0-2.61-3.42H210.71a7.09,7.09,0,0,0-1.26,4.14v6.11a7,7,0,1,0,14,0v-4.41l.9,2.43a2.11,2.11,0,1,0,4-1.43l-1.17-3.15C227.18,242.54,227.09,242.44,227.09,242.36Z"/><path class="cls-2" d="M314.84,256.39a7.12,7.12,0,0,0,7-7.2v-6.11a7,7,0,0,0-1.53-4.42v.27H306.74a13,13,0,0,0-2.61,3.42h0a.32.32,0,0,0-.09.27l-1.17,3.15a2.11,2.11,0,1,0,4,1.44h0l.9-2.43v4.41A7.26,7.26,0,0,0,314.84,256.39Z"/><path class="cls-1" d="M243.11,371.14c1.44,1.53,4,1.72,6,1.8.9,0,1.89,0,2.79-.08a18.06,18.06,0,0,0,2.16-.37c.54-.08,1-.36,1.53-.45a3.35,3.35,0,0,1,.9-.18c-.18-.45-.27-1-.45-1.44v-9H239.24v2.07a3.37,3.37,0,0,1,2.7.54,3.26,3.26,0,0,1,1.35,2.16,4.1,4.1,0,0,1-1,3.24C242.12,369.89,242.93,371,243.11,371.14Z"/><path class="cls-2" d="M290.45,364a3.29,3.29,0,0,1,2.52-.63v-4.14H276.14v11.07a7.09,7.09,0,0,0-.45,1.44,3.35,3.35,0,0,1,1.08.18,9.65,9.65,0,0,0,1.53.45,19.46,19.46,0,0,0,2.16.36,16.21,16.21,0,0,0,2.79.09c2,0,4.59-.19,6-1.8.18-.18,1-1.35.72-1.72a4.45,4.45,0,0,1-1-3.23A3.44,3.44,0,0,1,290.45,364Z"/><path class="cls-1" d="M258.32,132.19v1.71h15v-1.62a14.53,14.53,0,0,1-7.2-.45A19.15,19.15,0,0,1,258.32,132.19Z"/><path class="cls-1" d="M304,97.82c2.16-.54,5.58-2.34,7.65-8.74,2.7-8.36-3.15-10.44-4.68-10.89A89.86,89.86,0,0,1,304,97.82Z"/><path class="cls-2" d="M304,97.82a95.56,95.56,0,0,0,3-19.54c.09-1.89.18-3.78.18-5.49a41,41,0,0,0-41-40.95H266v72.64c.63-.9,4.41-5.76,8.82-2.35,4.86,3.7,3.6,4.41,8.1,8.1h-.09c.54,8.65-.81,14-2.88,17.29C293.42,122.66,300.44,110.68,304,97.82Z"/><path class="cls-2" d="M277,109A77.88,77.88,0,0,1,266,104.66v11.61h.36v.09C278.66,117.71,277.85,111.49,277,109Z"/><path class="cls-1" d="M249.14,110.06c4.23-3.51,3.15-4.32,7.92-7.92,4.59-3.51,8.55,1.89,8.91,2.43a.09.09,0,0,1,.09-.09h0V31.39a41,41,0,0,0-40.95,41c0,2,.09,4,.18,6.12-2.07.72-6.57,3.15-4.14,10.71,2,6,5.13,8,7.29,8.64,3.51,12.42,10.35,23.85,22.68,28.89-1.89-3.33-3-8.55-2.52-16.38Z"/><path class="cls-1" d="M265.79,116.27h0c.09-.1.09-.1.18-.1v-11.6h-.09a68.36,68.36,0,0,1-11.43,4.5C253.91,111.67,253.73,117.71,265.79,116.27Z"/><path class="cls-47" d="M266.42,116.27v15.39a.62.62,0,0,0-.27.09,14.76,14.76,0,0,0,7.2.45,9.9,9.9,0,0,0,6.66-4.77c2.07-3.33,3.42-8.64,2.88-17.28H283c-4.59-3.69-3.33-4.41-8.1-8.1-4.41-3.33-8.19,1.53-8.82,2.34l-.09.09v.09h.09a70.16,70.16,0,0,0,11.07,4.32C277.85,111.49,278.66,117.71,266.42,116.27Z"/><path class="cls-48" d="M257,102c-4.77,3.6-3.6,4.41-7.92,7.92l-.54.18c-.45,7.84.63,13,2.52,16.39a11,11,0,0,0,7.29,5.58,14.76,14.76,0,0,0,7.74-.45.62.62,0,0,1,.27-.09V116.08h-.54c-12.06,1.35-12-4.59-11.34-7.2a66.68,66.68,0,0,0,11.43-4.5h0v-.09C265.52,103.93,261.56,98.63,257,102Z"/><path class="cls-49" d="M234.47,228h31.77V133.91H255.53v3.51c-10.26,1.35-17.28,4.31-22.14,7.74a27.92,27.92,0,0,0-5.4,4.41h0s-14.58,11.16-17.55,89.37h14.31s.9-36.18,8.37-59.85l-.54,49h1.89Z"/><path class="cls-50" d="M306.83,238.94h13.59v-.27c-1.8-47.43-7.92-70.11-12.42-80.64-1.71-5.13-7.74-16.2-28.44-20l-2.61-.72v-3.51h-10.8v94h33.66l-.72-47.43c6.21,22.86,7,58.41,7,58.41h.72Z"/><path class="cls-51" d="M270.56,228h-4.41v29h5.13l2.52,102.33h20.79l2.79-110.88a18,18,0,0,0,2.61-9.18V228Z"/><path class="cls-52" d="M232.4,228h0l-.09,11.25a17.83,17.83,0,0,0,2.61,9.18l2.79,113H258.5L261,256.94h5.13V228Z"/><polygon class="cls-44" points="216.38 381.31 216.38 384.11 257.77 384.11 257.77 381.31 257.6 381.31 257.6 381.76 216.65 381.76 216.65 381.31 216.38 381.31"/><path class="cls-48" d="M243.38,366.19A3.06,3.06,0,0,0,242,364a3.37,3.37,0,0,0-2.7-.54,9.81,9.81,0,0,0-3.69,2c-2.25,1.61-11.25,4.41-11.25,4.41-6.21,1.89-7.74,5.31-7.74,7.47v4.5h41v-9.27c0-.63-.45-.81-1-.72a2.3,2.3,0,0,0-.9.18,10.31,10.31,0,0,1-1.53.45,20.27,20.27,0,0,1-2.16.36,15.32,15.32,0,0,1-2.79.09c-2,0-4.59-.18-6-1.8-.18-.18-1-1.35-.72-1.71A4.46,4.46,0,0,0,243.38,366.19Z"/><polygon class="cls-53" points="274.51 381.31 274.51 384.11 315.82 384.11 315.82 381.76 274.88 381.76 274.88 381.31 274.51 381.31"/><path class="cls-47" d="M283.25,372.94c-.9,0-1.89,0-2.79-.08a17.4,17.4,0,0,1-2.16-.37c-.54-.08-1-.36-1.53-.45a4,4,0,0,0-1.08-.18c-.45,0-.81.18-.81.72v9.27h40.95v-4.5c0-2.25-1.44-5.67-7.74-7.47,0,0-9-2.79-11.25-4.41a9.91,9.91,0,0,0-3.87-2,3.41,3.41,0,0,0-3.87,2.88h0a4.46,4.46,0,0,0,1,3.24c.27.36-.54,1.44-.72,1.71C287.84,372.76,285.23,372.94,283.25,372.94Z"/><path d="M249.05,64.52a12.06,12.06,0,1,0,11.61,15.39,1.23,1.23,0,0,0,.54.09h4.86V76.58h-4.95A12.05,12.05,0,0,0,249.05,64.52Zm0,21.41a9.09,9.09,0,1,1,9.09-9.09,9.08,9.08,0,0,1-9.09,9.09Z"/><path class="cls-10" d="M270.47,76.58h-4.41V80h4.86a12.19,12.19,0,1,0-.45-3.41Zm21.15.26a9.09,9.09,0,1,1-9.09-9.09,9.08,9.08,0,0,1,9.09,9.09Z"/><path class="cls-48" d="M240,76.84a9.09,9.09,0,1,0,9.09-9.09A9.08,9.08,0,0,0,240,76.84Z"/><path class="cls-47" d="M273.44,76.84a9.09,9.09,0,1,0,9.09-9.09,9.08,9.08,0,0,0-9.09,9.09Z"/><rect class="cls-1" x="651.14" y="137.43" width="14.94" height="12.42"/><path class="cls-1" d="M651.14,139.68v1.71h14.94v-1.62a14.54,14.54,0,0,1-7.2-.45A18.71,18.71,0,0,1,651.14,139.68Z"/><path class="cls-50" d="M648.62,145l.27-.09h0c-.18.09-.27.09-.45.18A.31.31,0,0,1,648.62,145Z"/><path class="cls-10" d="M711.35,61.38c-1.35-4-3.42-7.11-8.82-7.56,2.88-4,1.44-7.2-1.35-10.17s-7.47-4.23-12.78-3.24c0-7.92-8.91-9.09-12.87-9.27a13.64,13.64,0,0,0-7.47,1.53,5.67,5.67,0,0,1-2.16.36c-1.08.27.63.54-2.52-1.26-1.8-1-5.67-1.35-5.67-1.35.36.09.63.09.9.18v5.76h.09l.09,28v.09s.9.63,2.43,1.53c.09.09.18.09.27.18,5.58,3.15,18.9,8.82,31,1,2.88-1.89,3.06,5.76,1.17,9.81l6,8.28v.45c1.44.36,6.39,2.07,5.22,8.73a4.34,4.34,0,0,0,1.17-4,7.55,7.55,0,0,0,5.84-8.94c0-.11,0-.22-.08-.33-.9-4.32-3.51-4.14-6.57-6.21C711.71,73.08,713.33,67.05,711.35,61.38Z"/><path d="M640.16,59.67c5.85-2.25,14.22,2.07,18.63,4.68.09,0,.09.09.18.09l-.09-28h-.09V30.69c-.27-.09-.63-.09-.9-.18-8.64-1.53-20.7.63-21.87,7.29-7.38-2.25-21.78,4.5-21.33,13.14-5.22.27-10.62,4.23-10.8,9.63-.18,4.5,3.06,10.26,7.47,11.7-5.4.09-5.4,16,2.43,17.82a6.87,6.87,0,0,1,4.32-4v.09h0l6.12-9C619.64,67.68,631.88,62.73,640.16,59.67Z"/><path class="cls-1" d="M696.77,105.3c2.16-.54,5.58-2.34,7.65-8.73a11.2,11.2,0,0,0,.54-2.16c1.17-6.66-3.78-8.37-5.22-8.73A94.86,94.86,0,0,1,696.77,105.3Z"/><path class="cls-2" d="M670.13,119.61c-3.33.27-7.56-1.08-11.43-7.29v11.43h.36v.09C667.52,124.74,669.77,122.13,670.13,119.61Z"/><path class="cls-2" d="M696.77,105.3a94.86,94.86,0,0,0,3-19.62v-.45l-6-8.28c2-4,1.71-11.7-1.17-9.81-12.06,7.92-25.38,2.16-31-1h0a1.27,1.27,0,0,0-.27-.18c-1.53-.9-2.43-1.53-2.43-1.53h0c-.09,0-.09-.09-.18-.09v47.52c.81-1.08,4.5-5.58,8.82-2.25,3.69,2.79,6.48,6.75,7.56,7.92l.54.18c.54,8.64-.81,13.95-2.88,17.28C686.15,130.14,693.26,118.17,696.77,105.3Z"/><path class="cls-1" d="M641.87,117.54c4.23-3.51,3.15-4.32,7.92-7.92,4.5-3.42,8.37,1.71,8.91,2.43l.09-.09V64.44c-4.32-2.61-12.69-6.93-18.63-4.68-8.28,3.06-20.52,8-16.11,17.28l-6.12,9h0V86a6.87,6.87,0,0,0-4.32,4,10.4,10.4,0,0,0,.27,6.57c1.89,5.76,4.86,7.83,7,8.55,3.51,13,10.53,24.93,23.58,30-2.25-3.33-3.69-8.64-3.15-17.46Z"/><path class="cls-1" d="M647.18,119.61c.54,2.52,3.06,5.13,11.43,4.14v-.09h.18V112.23a.28.28,0,0,1-.09-.18C654.83,118.53,650.51,119.79,647.18,119.61Z"/><path d="M661.58,66.15c-.09-.09-.18-.09-.27-.18C661.49,66.15,661.58,66.24,661.58,66.15Z"/><path class="cls-10" d="M659.15,123.75v15.39a1.07,1.07,0,0,0-.27.09,14.54,14.54,0,0,0,7.2.45,10.12,10.12,0,0,0,6.66-4.77c2.07-3.33,3.42-8.64,2.88-17.28l-.54-.18c-1.08-1.17-3.87-5.13-7.56-7.92-4.32-3.24-8,1.26-8.82,2.25a.09.09,0,0,1-.09.09l.09.09a.09.09,0,0,1-.09.09c0,.09.09.09.09.18,3.78,6.21,8.1,7.47,11.43,7.29C669.77,122.13,667.52,124.74,659.15,123.75Z"/><path d="M658.61,112.23l.09-.09-.09-.09c-.54-.72-4.41-5.85-8.91-2.43-4.77,3.6-3.69,4.41-7.92,7.92l-.54.18c-.54,8.73.9,14.13,3.15,17.46a10.46,10.46,0,0,0,6.66,4.5,14.55,14.55,0,0,0,7.74-.45,1.07,1.07,0,0,1,.27-.09V123.66h-.54c-8.37,1-10.89-1.62-11.43-4.14C650.51,119.79,654.83,118.53,658.61,112.23Z"/><path class="cls-2" d="M707.39,262.71a7.12,7.12,0,0,0,7-7.2v-6.12a7.36,7.36,0,0,0-1.17-4h-14a11.07,11.07,0,0,0-2.43,3.33h0c0,.09-.09.18-.09.27l-1.17,3.15a2.11,2.11,0,0,0,4,1.44h0l.9-2.43v4.41A7.1,7.1,0,0,0,707.39,262.71Z"/><path class="cls-1" d="M602.09,249.12v6.12a7,7,0,1,0,14,0v-4.44l.9,2.43a2.11,2.11,0,1,0,4-1.44h0l-1.17-3.15c0-.09-.09-.18-.09-.27h0a12.28,12.28,0,0,0-2.25-3.06H603.26v-.18A7.53,7.53,0,0,0,602.09,249.12Z"/><path class="cls-54" d="M603.26,245.43h14.22c0-.54.72-26.28,5.4-48.42L607.94,194a413,413,0,0,0-4.68,51.3Z"/><path class="cls-48" d="M608.84,189.09l15.21,3.06c.27-1.08.54-2.16.81-3.15l-15.3-3.15.63-3A55.44,55.44,0,0,0,608.84,189.09Z"/><path class="cls-54" d="M625.94,241.11h32.58V149.85h0c-1.08-.09-12.51-1.53-10.26-5.76h-.18s-1.08.18-2.88.54c-6.84,1.35-18.09,4.5-24.66,11.79a12.74,12.74,0,0,0-1.62,2,16.53,16.53,0,0,0-1.44,2.43c-2,3.6-4.59,9.9-7,20.43l15.48,3.15-.45,2.34a8.72,8.72,0,0,1,.36-1.17l-.63,55.62h.72Z"/><path class="cls-45" d="M699.2,245.43h14c-1.71-44-7-66.78-11.43-78.3h0a20,20,0,0,0-1-2.34c0-.09-.09-.18-.09-.27-1.44-4.23-5.76-12.51-18.81-17.37A33,33,0,0,0,670.4,144h-1.26c2.34,4.23-9.45,5.67-10.62,5.76h0V241h4.68l27,.27h2.52l-.81-54.45c6.21,22.86,7,58.41,7,58.41h.27Z"/><path class="cls-55" d="M648.26,144h0c-2.25,4.23,9.18,5.67,10.26,5.76V146c-4.14-.09-5.94-1.08-6.75-2a2.4,2.4,0,0,1-.54-1.08,2.21,2.21,0,0,1,0-.81C648.35,142.38,648.26,143.82,648.26,144Z"/><path class="cls-25" d="M658.61,146h0l-.09,3.78h0V146Z"/><path class="cls-25" d="M665.54,144c-.81.9-2.7,1.89-6.93,2h0v3.78c1.08-.09,13-1.53,10.62-5.76h0c0-.09,0-1.62-3.06-1.89h-.09a2.17,2.17,0,0,1-.54,1.89Z"/><polygon class="cls-56" points="610.1 182.88 609.47 185.85 624.77 189 625.04 189 625.49 186.66 625.94 184.24 610.46 181.09 610.46 181.09 610.1 182.88"/><polygon class="cls-56" points="608.57 189 607.58 193.78 607.94 193.87 622.88 196.93 623.06 197.01 624.05 192.25 623.96 192.16 608.84 189.09 608.57 189"/><rect class="cls-13" x="634.49" y="277.56" width="0.54" height="0.09"/><rect class="cls-13" x="636.56" y="277.56" width="0.54" height="0.09"/><rect class="cls-13" x="637.64" y="277.56" width="0.54" height="0.09"/><rect class="cls-13" x="635.57" y="277.56" width="0.54" height="0.09"/><rect class="cls-13" x="630.35" y="277.56" width="0.54" height="0.09"/><rect class="cls-13" x="629.27" y="277.56" width="0.54" height="0.09"/><rect class="cls-13" x="632.42" y="277.56" width="0.54" height="0.09"/><rect class="cls-13" x="633.41" y="277.56" width="0.54" height="0.09"/><rect class="cls-13" x="631.34" y="277.56" width="0.54" height="0.09"/><rect class="cls-13" x="685.43" y="277.56" width="0.54" height="0.09"/><rect class="cls-13" x="686.42" y="277.56" width="0.54" height="0.09"/><rect class="cls-13" x="681.29" y="277.56" width="0.54" height="0.09"/><rect class="cls-13" x="687.5" y="277.56" width="0.54" height="0.09"/><rect class="cls-13" x="684.35" y="277.56" width="0.54" height="0.09"/><rect class="cls-13" x="683.36" y="277.56" width="0.54" height="0.09"/><rect class="cls-13" x="682.28" y="277.56" width="0.54" height="0.09"/><rect class="cls-13" x="688.49" y="277.56" width="0.54" height="0.09"/><rect class="cls-13" x="680.21" y="277.56" width="0.54" height="0.09"/><path class="cls-1" d="M635.21,372.06a5.25,5.25,0,0,0,1.44,2c1.53,1.08,3.69,1.17,5.4,1.17.9,0,1.89,0,2.79-.09a15.7,15.7,0,0,0,2.16-.36,9.6,9.6,0,0,0,1.53-.54,3.42,3.42,0,0,1,.9-.18c-.18-.45-.27-1-.45-1.44v-8.46H632.15v1.53a3.36,3.36,0,0,1,2.7.54,3.22,3.22,0,0,1,1.35,2.16,4.1,4.1,0,0,1-1,3.24Z"/><path class="cls-2" d="M683.36,366.3a3.38,3.38,0,0,1,2.52-.63v-2.52H669.05v9.45a9.23,9.23,0,0,0-.45,1.44,3.94,3.94,0,0,1,1.08.18c.54.18,1,.36,1.53.54a15.7,15.7,0,0,0,2.16.36,14.47,14.47,0,0,0,2.79.09c2,0,4.59-.18,6-1.8.18-.18,1-1.35.72-1.71a4.52,4.52,0,0,1-1-3.24A3.16,3.16,0,0,1,683.36,366.3Z"/><polygon class="cls-3" points="667.34 383.58 667.34 386.38 708.74 386.38 708.74 384.04 667.7 384.04 667.7 383.58 667.34 383.58"/><path class="cls-4" d="M676.16,375.21c-.9,0-1.89,0-2.79-.09a15.7,15.7,0,0,1-2.16-.36,9.6,9.6,0,0,1-1.53-.54,3.94,3.94,0,0,0-1.08-.18c-.45,0-.81.18-.81.72V384h41v-4.5c0-2.25-1.44-5.67-7.74-7.47,0,0-9-2.79-11.25-4.41a9.91,9.91,0,0,0-3.87-2,3.38,3.38,0,0,0-2.52.63,3.17,3.17,0,0,0-1.35,2.25,4.52,4.52,0,0,0,1,3.24c.27.36-.54,1.44-.72,1.71C680.75,375,678.14,375.21,676.16,375.21Zm6.93-3.15c2.34,1,8.55,4.77,8.55,4.77l-11.61-2A4.48,4.48,0,0,0,683.09,372.06Z"/><polygon class="cls-3" points="609.29 383.58 609.29 386.38 650.6 386.38 650.6 383.58 650.42 383.58 650.42 384.04 609.47 384.04 609.47 383.58 609.29 383.58"/><path class="cls-5" d="M635.3,371.79a4.5,4.5,0,0,0,1-3.24,3,3,0,0,0-1.35-2.16,3.36,3.36,0,0,0-2.7-.54,9.93,9.93,0,0,0-3.69,2c-2.25,1.62-11.25,4.41-11.25,4.41-6.21,1.89-7.74,5.31-7.74,7.47v4.5h41v-9.27c0-.63-.45-.81-1-.72a2.77,2.77,0,0,0-.9.18c-.54.18-1,.36-1.53.54a15.7,15.7,0,0,1-2.16.36,14.45,14.45,0,0,1-2.79.09,10.25,10.25,0,0,1-5.4-1.17,3.22,3.22,0,0,0,1.62.72l-11.61,2q4.15-2.6,8.55-4.77C635.21,371.88,635.21,371.79,635.3,371.79Z"/><path class="cls-57" d="M664.28,262.89l2.52,100.26h20.7l2.7-108.72a17.93,17.93,0,0,0,2.61-9.27v-4h0l-34.29-.27v22Z"/><path class="cls-58" d="M625.31,245.16a17.93,17.93,0,0,0,2.61,9.27l2.7,109.71h20.7l2.43-101.25h4.68v-22H625.22v4.32Z"/><path class="cls-7" d="M635.21,372.06c-2.34,1-8.55,4.77-8.55,4.77l11.61-2a4.29,4.29,0,0,1-1.62-.72A7.07,7.07,0,0,1,635.21,372.06Z"/><path class="cls-7" d="M680,374.76l11.61,2q-4.15-2.6-8.55-4.77A4.16,4.16,0,0,1,680,374.76Z"/></g></g></g></g></g></svg>