<svg height="511pt" viewBox="1 -35 511.999 511" width="511pt" xmlns="http://www.w3.org/2000/svg"><path d="m502 96.34375v315.246094c0 10.910156-8.84375 19.757812-19.757812 19.757812h-452.484376c-10.914062 0-19.757812-8.847656-19.757812-19.757812v-315.246094c0-10.910156 8.84375-19.757812 19.757812-19.757812h452.484376c10.914062 0 19.757812 8.84375 19.757812 19.757812zm0 0" fill="#50b4ff"/><path d="m174.402344 163.621094h-164.402344v206.75h179.121094" fill="#fdbf6c"/><path d="m322.878906 370.371094h179.121094v-206.75h-164.402344" fill="#fdbf6c"/><path d="m381.277344 261.984375c0-69.195313-56.089844-125.289063-125.277344-125.289063s-125.277344 56.09375-125.277344 125.289063 56.089844 125.289063 125.277344 125.289063 125.277344-56.09375 125.277344-125.289063zm0 0" fill="#52607e"/><path d="m256 345.566406c-46.082031 0-83.574219-37.492187-83.574219-83.582031 0-46.085937 37.492188-83.582031 83.574219-83.582031s83.574219 37.496094 83.574219 83.582031c0 46.089844-37.492188 83.582031-83.574219 83.582031zm0 0" fill="#fcfcfc"/><path d="m256 355.570312c-51.597656 0-93.574219-41.984374-93.574219-93.585937s41.976563-93.582031 93.574219-93.582031 93.574219 41.980468 93.574219 93.582031-41.976563 93.585937-93.574219 93.585937zm0-167.167968c-40.570312 0-73.574219 33.007812-73.574219 73.582031s33.003907 73.585937 73.574219 73.585937 73.574219-33.011718 73.574219-73.585937-33.003907-73.582031-73.574219-73.582031zm0 0"/><path d="m212.507812 271.984375c-5.523437 0-10-4.476563-10-10 0-29.5 23.996094-53.496094 53.492188-53.496094 5.523438 0 10 4.476563 10 10 0 5.519531-4.476562 10-10 10-18.46875 0-33.492188 15.023438-33.492188 33.496094 0 5.523437-4.476562 10-10 10zm0 0"/><path d="m384.53125 76.585938h-257.0625l14.789062-48.757813c3.121094-10.292969 12.605469-17.328125 23.359376-17.328125h180.769531c10.75 0 20.238281 7.035156 23.359375 17.328125zm0 0" fill="#52607e"/><path d="m414.507812 201.917969h54.109376v41.707031h-54.109376zm0 0" fill="#f3756a"/><path d="m468.617188 253.625h-54.109376c-5.523437 0-10-4.480469-10-10v-41.707031c0-5.519531 4.476563-10 10-10h54.109376c5.523437 0 10 4.480469 10 10v41.707031c0 5.523438-4.476563 10-10 10zm-44.109376-20h34.109376v-21.707031h-34.109376zm0 0"/><path d="m414.507812 272.007812h54.109376v41.703126h-54.109376zm0 0" fill="#c1ee92"/><path d="m468.617188 323.710938h-54.109376c-5.523437 0-10-4.476563-10-10v-41.703126c0-5.523437 4.476563-10 10-10h54.109376c5.523437 0 10 4.476563 10 10v41.703126c0 5.523437-4.476563 10-10 10zm-44.109376-20h34.109376v-21.703126h-34.109376zm0 0"/><path d="m482.242188 66.585938h-90.292969l-12.636719-41.664063c-4.429688-14.605469-17.664062-24.421875-32.925781-24.421875h-180.773438c-15.261719 0-28.496093 9.816406-32.929687 24.421875l-12.632813 41.664063h-90.292969c-16.410156 0-29.757812 13.351562-29.757812 29.757812v315.246094c0 16.40625 13.347656 29.757812 29.757812 29.757812h452.484376c16.410156 0 29.757812-13.351562 29.757812-29.757812v-315.246094c0-16.40625-13.347656-29.757812-29.757812-29.757812zm-330.417969-35.859376c1.855469-6.117187 7.398437-10.226562 13.789062-10.226562h180.773438c6.390625 0 11.933593 4.109375 13.789062 10.226562l10.875 35.859376h-230.101562zm-122.066407 55.859376h452.484376c5.378906 0 9.757812 4.378906 9.757812 9.757812v57.277344h-154.402344c-.222656 0-.445312.007812-.664062.023437-9.953125-7.457031-20.964844-13.574219-32.761719-18.085937h84.664063c5.523437 0 10-4.476563 10-10 0-5.519532-4.476563-10-10-10h-368.835938v-19.214844c0-5.378906 4.375-9.757812 9.757812-9.757812zm462.242188 273.785156h-143.238281c26.160156-24.6875 42.515625-59.660156 42.515625-98.386719 0-33.742187-12.417969-64.640625-32.921875-88.363281h133.644531zm-472-224.8125h187.828125c-11.796875 4.511718-22.808594 10.628906-32.761719 18.085937-.21875-.015625-.441406-.023437-.664062-.023437h-154.402344zm0 38.0625h133.644531c-20.503906 23.722656-32.921875 54.621094-32.921875 88.363281 0 38.722656 16.355469 73.699219 42.515625 98.386719h-143.238281zm120.722656 88.363281c0-63.570313 51.714844-115.289063 115.277344-115.289063s115.277344 51.71875 115.277344 115.289063-51.714844 115.289063-115.277344 115.289063-115.277344-51.71875-115.277344-115.289063zm341.519532 159.363281h-452.484376c-5.382812 0-9.757812-4.378906-9.757812-9.757812v-31.21875h169.121094c.441406 0 .875-.03125 1.300781-.085938 19.4375 10.820313 41.800781 16.988282 65.578125 16.988282s46.140625-6.167969 65.578125-16.988282c.425781.054688.859375.085938 1.300781.085938h169.121094v31.21875c0 5.378906-4.375 9.757812-9.757812 9.757812zm0 0"/><path d="m431.25 135.5625c-2.628906 0-5.199219-1.070312-7.070312-2.929688-1.859376-1.871093-2.929688-4.441406-2.929688-7.070312 0-.660156.070312-1.308594.199219-1.960938.128906-.636718.320312-1.269531.570312-1.867187.25-.601563.558594-1.179687.921875-1.730469.367188-.539062.777344-1.0625 1.238282-1.519531 2.332031-2.320313 5.78125-3.382813 9.03125-2.730469.640624.128906 1.269531.320313 1.867187.570313.601563.25 1.183594.558593 1.730469.917969.542968.371093 1.0625.78125 1.519531 1.242187.460937.457031.882813.976563 1.242187 1.519531.359376.546875.667969 1.128906.917969 1.730469.25.597656.441407 1.226563.570313 1.867187.132812.652344.191406 1.300782.191406 1.960938 0 .648438-.058594 1.300781-.191406 1.949219-.128906.640625-.320313 1.269531-.570313 1.871093-.25.601563-.558593 1.179688-.917969 1.730469-.359374.539063-.78125 1.058594-1.242187 1.519531-.460937.460938-.976563.871094-1.519531 1.238282-.546875.359375-1.128906.671875-1.730469.921875-.597656.25-1.226563.4375-1.867187.570312-.652344.128907-1.300782.199219-1.960938.199219zm0 0"/></svg>